<svg width="282" height="282" viewBox="0 0 282 282" fill="none" xmlns="http://www.w3.org/2000/svg">
<g clip-path="url(#clip0_0_1558)" filter="url(#filter0_d_0_1558)">
<circle cx="141" cy="137" r="137" fill="white"/>
<path d="M68.72 147C68.72 147.064 68.848 147.021 69.104 146.872C69.36 146.701 69.584 146.381 69.776 145.912C69.9893 145.421 70.096 144.717 70.096 143.8V128.088C70.096 127.213 69.9893 126.552 69.776 126.104C69.584 125.635 69.36 125.315 69.104 125.144C68.848 124.973 68.72 124.92 68.72 124.984H80.304V128.184C79.92 126.904 78.768 126.264 76.848 126.264H72.4V135.352H77.904C78.3307 135.352 78.6933 135.288 78.992 135.16C79.2907 135.011 79.5147 134.861 79.664 134.712C79.8133 134.563 79.8987 134.467 79.92 134.424V137.528C79.8987 137.485 79.8133 137.389 79.664 137.24C79.5147 137.091 79.2907 136.952 78.992 136.824C78.7147 136.696 78.3627 136.632 77.936 136.632H72.4V145.72H77.392C78.352 145.72 79.1733 145.528 79.856 145.144C80.56 144.739 81.0613 144.227 81.36 143.608L80.784 147H68.72ZM101.072 147C101.456 146.936 101.648 146.744 101.648 146.424C101.648 146.04 101.488 145.613 101.168 145.144C100.848 144.653 100.667 144.376 100.624 144.312L96.1443 137.4L91.1203 144.12C90.8003 144.547 90.5443 144.931 90.3523 145.272C90.1816 145.592 90.0963 145.891 90.0963 146.168C90.0963 146.637 90.4376 146.915 91.1203 147H86.3203C86.3203 147.043 86.4483 146.989 86.7043 146.84C86.9603 146.691 87.3229 146.392 87.7923 145.944C88.2829 145.475 88.8696 144.781 89.5523 143.864L95.3763 136.152L90.2243 128.184C89.6269 127.267 89.0936 126.573 88.6243 126.104C88.1549 125.635 87.7709 125.325 87.4723 125.176C87.1736 125.005 87.0243 124.941 87.0243 124.984H92.3683C91.9629 125.069 91.7603 125.272 91.7603 125.592C91.7603 125.912 91.9949 126.435 92.4643 127.16L96.9123 134.072L101.552 127.928C102.214 127.053 102.544 126.349 102.544 125.816C102.544 125.325 102.224 125.048 101.584 124.984H106.352C106.352 124.963 106.214 125.016 105.936 125.144C105.68 125.251 105.339 125.496 104.912 125.88C104.507 126.243 104.038 126.787 103.504 127.512L97.6803 135.288L102.832 143.288C103.515 144.355 104.123 145.165 104.656 145.72C105.19 146.253 105.616 146.616 105.936 146.808C106.256 146.979 106.416 147.043 106.416 147H101.072ZM126.075 130.936C126.075 132.173 125.776 133.283 125.179 134.264C124.603 135.224 123.771 135.981 122.683 136.536C121.595 137.091 120.315 137.368 118.843 137.368C117.947 137.368 116.987 137.272 115.963 137.08V144.056C115.963 144.888 116.069 145.528 116.283 145.976C116.496 146.403 116.731 146.691 116.987 146.84C117.243 146.989 117.371 147.043 117.371 147H112.283C112.283 147.043 112.411 146.989 112.667 146.84C112.923 146.691 113.147 146.403 113.339 145.976C113.552 145.549 113.659 144.909 113.659 144.056V128.024C113.659 127.171 113.552 126.52 113.339 126.072C113.147 125.624 112.923 125.325 112.667 125.176C112.411 125.005 112.283 124.941 112.283 124.984H118.555C119.643 124.984 120.539 125.059 121.243 125.208C121.947 125.336 122.565 125.539 123.099 125.816C124.059 126.307 124.795 127.021 125.307 127.96C125.819 128.877 126.075 129.869 126.075 130.936ZM123.611 131.352C123.611 129.837 123.141 128.611 122.203 127.672C121.264 126.733 120.016 126.264 118.459 126.264H115.963V135.832C116.88 136.003 117.84 136.088 118.843 136.088C120.336 136.088 121.499 135.661 122.331 134.808C123.184 133.933 123.611 132.781 123.611 131.352ZM133.19 127.96C133.19 127.107 133.083 126.467 132.87 126.04C132.678 125.592 132.454 125.293 132.198 125.144C131.942 124.995 131.814 124.941 131.814 124.984H136.902C136.902 124.941 136.774 124.995 136.518 125.144C136.262 125.293 136.027 125.592 135.814 126.04C135.6 126.467 135.494 127.107 135.494 127.96V145.72H140.742C141.702 145.72 142.523 145.528 143.206 145.144C143.91 144.739 144.411 144.227 144.71 143.608L144.134 147H131.814C131.814 147.064 131.942 147.021 132.198 146.872C132.454 146.701 132.678 146.381 132.87 145.912C133.083 145.421 133.19 144.717 133.19 143.8V127.96ZM148.829 136.248C148.829 133.987 149.309 131.971 150.269 130.2C151.251 128.429 152.616 127.053 154.365 126.072C156.136 125.091 158.173 124.6 160.477 124.6C162.397 124.6 164.189 125.027 165.853 125.88C167.539 126.712 168.883 127.971 169.885 129.656C170.909 131.341 171.421 133.368 171.421 135.736C171.421 137.997 170.931 140.013 169.949 141.784C168.989 143.555 167.624 144.931 165.853 145.912C164.104 146.893 162.077 147.384 159.773 147.384C157.853 147.384 156.051 146.968 154.365 146.136C152.701 145.283 151.357 144.013 150.333 142.328C149.331 140.643 148.829 138.616 148.829 136.248ZM168.861 136.216C168.861 134.275 168.456 132.525 167.645 130.968C166.856 129.389 165.757 128.163 164.349 127.288C162.963 126.392 161.395 125.944 159.645 125.944C158.045 125.944 156.616 126.349 155.357 127.16C154.12 127.971 153.149 129.123 152.445 130.616C151.741 132.088 151.389 133.805 151.389 135.768C151.389 137.709 151.784 139.469 152.573 141.048C153.384 142.605 154.483 143.832 155.869 144.728C157.277 145.603 158.856 146.04 160.605 146.04C162.205 146.04 163.624 145.635 164.861 144.824C166.12 144.013 167.101 142.872 167.805 141.4C168.509 139.907 168.861 138.179 168.861 136.216ZM184.121 135.928C185.102 135.928 185.955 135.704 186.681 135.256C187.406 134.787 187.95 134.189 188.313 133.464C188.697 132.717 188.889 131.939 188.889 131.128C188.889 130.296 188.707 129.517 188.345 128.792C188.003 128.045 187.47 127.437 186.745 126.968C186.019 126.499 185.134 126.264 184.089 126.264H181.369V144.056C181.369 144.909 181.475 145.56 181.689 146.008C181.902 146.435 182.137 146.723 182.393 146.872C182.649 147 182.777 147.043 182.777 147H177.689C177.689 147.043 177.817 146.989 178.073 146.84C178.329 146.691 178.553 146.403 178.745 145.976C178.958 145.549 179.065 144.909 179.065 144.056V128.056C179.065 127.181 178.958 126.52 178.745 126.072C178.553 125.603 178.329 125.293 178.073 125.144C177.817 124.973 177.689 124.92 177.689 124.984H184.025C185.689 124.984 187.054 125.261 188.121 125.816C189.209 126.349 189.987 127.053 190.457 127.928C190.947 128.781 191.193 129.72 191.193 130.744C191.193 131.597 190.99 132.44 190.585 133.272C190.179 134.083 189.593 134.797 188.825 135.416C188.078 136.013 187.203 136.429 186.201 136.664L185.689 136.76L191.321 143.928C192.067 144.76 192.686 145.4 193.177 145.848C193.667 146.296 194.019 146.595 194.233 146.744C194.467 146.893 194.606 146.979 194.649 147H190.905L182.201 135.928H184.121ZM199.533 147C199.533 147.064 199.661 147.021 199.917 146.872C200.173 146.701 200.397 146.381 200.589 145.912C200.802 145.421 200.909 144.717 200.909 143.8V128.088C200.909 127.213 200.802 126.552 200.589 126.104C200.397 125.635 200.173 125.315 199.917 125.144C199.661 124.973 199.533 124.92 199.533 124.984H211.117V128.184C210.733 126.904 209.581 126.264 207.661 126.264H203.213V135.352H208.717C209.143 135.352 209.506 135.288 209.805 135.16C210.103 135.011 210.327 134.861 210.477 134.712C210.626 134.563 210.711 134.467 210.733 134.424V137.528C210.711 137.485 210.626 137.389 210.477 137.24C210.327 137.091 210.103 136.952 209.805 136.824C209.527 136.696 209.175 136.632 208.749 136.632H203.213V145.72H208.205C209.165 145.72 209.986 145.528 210.669 145.144C211.373 144.739 211.874 144.227 212.173 143.608L211.597 147H199.533Z" fill="#0B0D17"/>
</g>
<defs>
<filter id="filter0_d_0_1558" x="0" y="0" width="282" height="282" filterUnits="userSpaceOnUse" color-interpolation-filters="sRGB">
<feFlood flood-opacity="0" result="BackgroundImageFix"/>
<feColorMatrix in="SourceAlpha" type="matrix" values="0 0 0 0 0 0 0 0 0 0 0 0 0 0 0 0 0 0 127 0" result="hardAlpha"/>
<feOffset dy="4"/>
<feGaussianBlur stdDeviation="2"/>
<feComposite in2="hardAlpha" operator="out"/>
<feColorMatrix type="matrix" values="0 0 0 0 0 0 0 0 0 0 0 0 0 0 0 0 0 0 0.25 0"/>
<feBlend mode="normal" in2="BackgroundImageFix" result="effect1_dropShadow_0_1558"/>
<feBlend mode="normal" in="SourceGraphic" in2="effect1_dropShadow_0_1558" result="shape"/>
</filter>
<clipPath id="clip0_0_1558">
<rect width="274" height="274" fill="white" transform="translate(4)"/>
</clipPath>
</defs>
</svg>
